<svg width="250" height="250" viewBox="0 0 250 250" fill="none" xmlns="http://www.w3.org/2000/svg">
<path fill-rule="evenodd" clip-rule="evenodd" d="M158.42 4.57559C224.884 23.0205 263.87 91.956 245.424 158.42C226.979 224.884 158.044 263.87 91.5801 245.424C25.1159 226.979 -13.8695 158.044 4.57559 91.5801C23.0205 25.1159 91.956 -13.8695 158.42 4.57559ZM141.264 139.086C168.782 146.704 185.071 175.022 177.819 202.639C170.568 230.256 142.47 246.92 114.758 240.037C114.556 239.982 114.353 239.928 114.15 239.874C113.686 239.75 113.221 239.626 112.757 239.497C66.8695 226.762 41.4858 171.992 53.482 114.725L141.264 139.086ZM72.1814 47.361C64.9301 74.9783 81.2184 103.296 108.737 110.914L196.519 135.275C208.515 78.0086 183.131 23.2377 137.244 10.5031C136.773 10.3723 136.301 10.2463 135.829 10.1205C135.634 10.0682 135.438 10.016 135.242 9.96342C107.531 3.08025 79.4324 19.7437 72.1814 47.361Z" fill="white"/>
</svg>
