<svg width="500" height="500" viewBox="0 0 500 500" fill="none" xmlns="http://www.w3.org/2000/svg">
<path fill-rule="evenodd" clip-rule="evenodd" d="M316.84 9.15118C449.768 46.041 527.739 183.912 490.849 316.84C453.959 449.768 316.088 527.739 183.16 490.849C50.2319 453.959 -27.739 316.088 9.15118 183.16C46.041 50.2319 183.912 -27.739 316.84 9.15118ZM282.528 278.172C337.565 293.408 370.141 350.043 355.639 405.278C341.137 460.512 284.939 493.84 229.517 480.073C229.111 479.964 228.704 479.855 228.297 479.747C227.37 479.499 226.441 479.251 225.513 478.994C133.739 453.525 82.9716 343.983 106.964 229.45L282.528 278.172ZM144.362 94.722C129.86 149.957 162.437 206.592 217.473 221.828L393.037 270.55C417.03 156.017 366.262 46.4754 274.488 21.0063C273.545 20.7446 272.601 20.4926 271.659 20.2411C271.267 20.1365 270.875 20.032 270.484 19.9269C215.062 6.16053 158.865 39.4874 144.362 94.722Z" fill="url(#paint0_linear)"/>
<defs>
<linearGradient id="paint0_linear" x1="0.000198841" y1="250" x2="500" y2="250" gradientUnits="userSpaceOnUse">
<stop stop-color="#FC9867"/>
<stop offset="1" stop-color="#AB9DF2"/>
</linearGradient>
</defs>
</svg>
